<svg xmlns="http://www.w3.org/2000/svg" viewBox="0 0 800 480" width="100%" height="100%">
  <defs>
    <linearGradient id="dbBg" x1="0%" y1="0%" x2="100%" y2="100%">
      <stop offset="0%" stop-color="#0b132b" />
      <stop offset="100%" stop-color="#1c2541" />
    </linearGradient>
    <linearGradient id="dbOrange" x1="0%" y1="0%" x2="100%" y2="100%">
      <stop offset="0%" stop-color="#ff3621" />
      <stop offset="100%" stop-color="#ff5e3a" />
    </linearGradient>
  </defs>

  <rect width="800" height="480" rx="16" fill="url(#dbBg)" />
  <rect x="20" y="20" width="760" height="440" rx="12" fill="none" stroke="#3a506b" stroke-width="1.5" />

  <!-- Top Bar -->
  <rect x="35" y="35" width="730" height="45" rx="8" fill="#1c2541" stroke="#3a506b" stroke-width="1" />
  <circle cx="55" cy="57" r="6" fill="#ff3621" />
  <circle cx="75" cy="57" r="6" fill="#f59e0b" />
  <circle cx="95" cy="57" r="6" fill="#10b981" />
  <text x="120" y="62" font-family="'Segoe UI', Roboto, monospace" font-size="14" fill="#6fffe9" font-weight="600">Databricks · PySpark Streaming &amp; Unity Catalog Lakehouse</text>
  <rect x="630" y="44" width="120" height="26" rx="13" fill="url(#dbOrange)" />
  <text x="690" y="61" font-family="'Segoe UI', Roboto, sans-serif" font-size="11" font-weight="bold" fill="#ffffff" text-anchor="middle">STREAMING ETL</text>

  <!-- Step 1: Auto Loader Ingestion -->
  <g transform="translate(45, 120)">
    <rect width="150" height="260" rx="10" fill="#1c2541" stroke="#ff3621" stroke-width="2" />
    <text x="75" y="32" font-family="'Segoe UI', sans-serif" font-size="13" font-weight="bold" fill="#ff5e3a" text-anchor="middle">AUTO LOADER</text>
    <text x="75" y="52" font-family="sans-serif" font-size="10" fill="#8d99ae" text-anchor="middle">ADLS Gen2 Ingestion</text>
    <line x1="20" y1="62" x2="130" y2="62" stroke="#3a506b" />

    <rect x="15" y="78" width="120" height="40" rx="6" fill="#0b132b" stroke="#3a506b" />
    <text x="75" y="102" font-family="monospace" font-size="10" fill="#6fffe9" text-anchor="middle">cloudFiles stream</text>

    <rect x="15" y="128" width="120" height="40" rx="6" fill="#0b132b" stroke="#3a506b" />
    <text x="75" y="152" font-family="sans-serif" font-size="10" fill="#e0e1dd" text-anchor="middle">Schema Evolution</text>

    <rect x="15" y="178" width="120" height="60" rx="6" fill="#0b132b" stroke="#3a506b" />
    <text x="75" y="202" font-family="sans-serif" font-size="10" fill="#facc15" text-anchor="middle">10M+ Events / Day</text>
    <text x="75" y="222" font-family="sans-serif" font-size="9" fill="#8d99ae" text-anchor="middle">Sub-minute Latency</text>
  </g>

  <!-- Step 2: DLT Pipeline -->
  <g transform="translate(225, 120)">
    <rect width="165" height="260" rx="10" fill="#1c2541" stroke="#48bfe3" stroke-width="2" />
    <text x="82" y="32" font-family="'Segoe UI', sans-serif" font-size="13" font-weight="bold" fill="#48bfe3" text-anchor="middle">DELTA LIVE TABLES</text>
    <text x="82" y="52" font-family="sans-serif" font-size="10" fill="#8d99ae" text-anchor="middle">Declarative ETL Pipeline</text>
    <line x1="20" y1="62" x2="145" y2="62" stroke="#3a506b" />

    <rect x="15" y="78" width="135" height="40" rx="6" fill="#0b132b" stroke="#3a506b" />
    <text x="82" y="102" font-family="sans-serif" font-size="11" fill="#e0e1dd" text-anchor="middle">Bronze Raw Tables</text>

    <rect x="15" y="128" width="135" height="40" rx="6" fill="#0b132b" stroke="#3a506b" />
    <text x="82" y="152" font-family="sans-serif" font-size="11" fill="#e0e1dd" text-anchor="middle">Silver Enriched DLT</text>

    <rect x="15" y="178" width="135" height="60" rx="6" fill="#0b132b" stroke="#3a506b" />
    <text x="82" y="202" font-family="sans-serif" font-size="10" fill="#10b981" text-anchor="middle">Expectations &amp; Rules</text>
    <text x="82" y="222" font-family="sans-serif" font-size="9" fill="#8d99ae" text-anchor="middle">Automated Data Quality</text>
  </g>

  <!-- Step 3: Unity Catalog -->
  <g transform="translate(415, 120)">
    <rect width="160" height="260" rx="10" fill="#1c2541" stroke="#7209b7" stroke-width="2" />
    <text x="80" y="32" font-family="'Segoe UI', sans-serif" font-size="13" font-weight="bold" fill="#b5179e" text-anchor="middle">UNITY CATALOG</text>
    <text x="80" y="52" font-family="sans-serif" font-size="10" fill="#8d99ae" text-anchor="middle">Governance &amp; Lineage</text>
    <line x1="20" y1="62" x2="140" y2="62" stroke="#3a506b" />

    <rect x="15" y="78" width="130" height="40" rx="6" fill="#0b132b" stroke="#3a506b" />
    <text x="80" y="102" font-family="sans-serif" font-size="11" fill="#e0e1dd" text-anchor="middle">Column Masking</text>

    <rect x="15" y="128" width="130" height="40" rx="6" fill="#0b132b" stroke="#3a506b" />
    <text x="80" y="152" font-family="sans-serif" font-size="11" fill="#e0e1dd" text-anchor="middle">Row-Level Security</text>

    <rect x="15" y="178" width="130" height="60" rx="6" fill="#0b132b" stroke="#3a506b" />
    <text x="80" y="202" font-family="sans-serif" font-size="10" fill="#a78bfa" text-anchor="middle">Automated Lineage</text>
    <text x="80" y="222" font-family="sans-serif" font-size="9" fill="#8d99ae" text-anchor="middle">Audit &amp; Access Controls</text>
  </g>

  <!-- Step 4: Downstream Analytics -->
  <g transform="translate(600, 120)">
    <rect width="155" height="260" rx="10" fill="#1c2541" stroke="#10b981" stroke-width="2" />
    <text x="77" y="32" font-family="'Segoe UI', sans-serif" font-size="13" font-weight="bold" fill="#10b981" text-anchor="middle">CONSUMPTION</text>
    <text x="77" y="52" font-family="sans-serif" font-size="10" fill="#8d99ae" text-anchor="middle">BI &amp; ML Serving</text>
    <line x1="20" y1="62" x2="135" y2="62" stroke="#3a506b" />

    <rect x="15" y="78" width="125" height="40" rx="6" fill="#0b132b" stroke="#3a506b" />
    <text x="77" y="102" font-family="sans-serif" font-size="11" fill="#fbbf24" text-anchor="middle">Databricks SQL</text>

    <rect x="15" y="128" width="125" height="40" rx="6" fill="#0b132b" stroke="#3a506b" />
    <text x="77" y="152" font-family="sans-serif" font-size="11" fill="#38bdf8" text-anchor="middle">Power BI Gold Lake</text>

    <rect x="15" y="178" width="125" height="60" rx="6" fill="#0b132b" stroke="#3a506b" />
    <text x="77" y="202" font-family="sans-serif" font-size="10" fill="#10b981" text-anchor="middle">45% Compute Savings</text>
    <text x="77" y="222" font-family="sans-serif" font-size="9" fill="#8d99ae" text-anchor="middle">Spot Instances + DLT</text>
  </g>

  <!-- Bottom Badges -->
  <g transform="translate(45, 400)">
    <rect width="710" height="40" rx="6" fill="#0b132b" stroke="#3a506b" />
    <text x="20" y="25" font-family="monospace" font-size="12" fill="#6fffe9">Databricks · PySpark Structured Streaming · Delta Lake · Unity Catalog · Python · Azure ADLS Gen2</text>
  </g>
</svg>